<svg xmlns="http://www.w3.org/2000/svg" viewBox="0 0 344 130" width="344" height="130"><g fill="#ffffff"><g transform="translate(40.0,105) scale(0.090000,-0.090000)"><path d="M472 -14Q342 -14 244.0 34.5Q146 83 91.5 171.0Q37 259 37 376Q37 494 91.5 581.0Q146 668 246.0 716.0Q346 764 483 764Q516 764 538.0 761.5Q560 759 579.0 756.0Q598 753 622.5 750.5Q647 748 684 748L714 548H704Q693 607 660.5 652.5Q628 698 579.5 724.5Q531 751 472 751Q414 751 365.0 723.0Q316 695 281 645Q246 594 226.5 523.5Q207 453 207 369Q207 258 241.0 175.5Q275 93 337.0 47.5Q399 2 483 2Q579 2 641.5 59.5Q704 117 719 220H729L700 4Q653 4 617.0 -0.5Q581 -5 547.5 -9.5Q514 -14 472 -14Z"/></g><g transform="translate(108.6,105) scale(0.090000,-0.090000)"><path d="M408 -28 407 101Q381 50 328.0 18.0Q275 -14 216 -14Q149 -14 108.5 30.0Q68 74 68 146V418Q68 456 53.0 477.0Q38 498 -13 498V508H88Q139 508 166 519Q191 530 201 546H211V136Q211 86 231.0 56.0Q251 26 283 26Q314 26 347.0 52.5Q380 79 405 124V418Q405 454 387.0 476.0Q369 498 325 498V508H426Q477 508 504 519Q530 530 540 546H550L549 90Q549 54 571.0 31.5Q593 9 629 9V0H530Q504 0 484.0 -1.5Q464 -3 451 -5Q424 -11 413 -28Z"/></g><g transform="translate(165.5,105) scale(0.090000,-0.090000)"><path d="M6 0V10H7Q43 10 65.0 32.0Q87 54 87 90V418Q87 456 71.5 477.0Q56 498 6 498V508H105Q158 508 185.0 518.5Q212 529 223 546H228L229 382Q242 412 262.5 445.0Q283 478 314.5 500.5Q346 523 390 523Q405 523 422.0 520.0Q439 517 458 509L419 392Q383 412 356.5 420.0Q330 428 310 428Q276 428 259.5 407.0Q243 386 231 357V90Q231 54 253.0 32.0Q275 10 311 10H312V0Z"/></g><g transform="translate(208.0,105) scale(0.090000,-0.090000)"><path d="M307 -14Q225 -14 163.5 19.0Q102 52 68.0 112.0Q34 172 34 254Q34 336 68.0 396.0Q102 456 163.5 489.0Q225 522 307 522Q389 522 450.0 489.0Q511 456 545.0 396.0Q579 336 579 254Q579 172 545.0 112.0Q511 52 450.0 19.0Q389 -14 307 -14ZM306 -1Q341 -1 366.0 34.0Q391 69 405.0 127.5Q419 186 419 255Q419 330 404.5 387.5Q390 445 364.5 477.5Q339 510 307 510Q273 510 247.5 475.0Q222 440 208.0 382.0Q194 324 194 255Q194 179 209.0 121.0Q224 63 249.5 31.0Q275 -1 306 -1Z"/></g><g transform="translate(264.9,105) scale(0.090000,-0.090000)"><path d="M204 -14Q178 -14 165.0 -12.0Q152 -10 140.5 -7.0Q129 -4 110.0 -2.0Q91 0 52 0L28 188H41Q57 94 101.0 46.5Q145 -1 197 -1Q248 -1 274.5 20.0Q301 41 301 77Q301 100 289.5 117.5Q278 135 250.0 153.5Q222 172 174 198L145 214Q90 245 63.5 286.5Q37 328 37 376Q37 444 86.5 483.0Q136 522 219 522Q240 522 253.0 520.0Q266 518 278.0 515.0Q290 512 308.0 510.0Q326 508 356 508L370 347H358Q352 394 331.5 430.5Q311 467 283.0 487.5Q255 508 226 508Q188 508 165.5 488.0Q143 468 143 432Q143 405 160.5 382.5Q178 360 228 334L258 319Q328 283 360.0 244.0Q392 205 392 144Q392 -12 204 -14Z"/></g></g></svg>
